<svg xmlns="http://www.w3.org/2000/svg" width="130.266" height="218.038" viewBox="0 0 130.266 218.038">
  <g>
    <rect x="0.5" y="0.5" width="129.266" height="217.038" fill="#f4e5c4" stroke="#0a1013" stroke-miterlimit="10"/>
    <g>
      <path d="M22.149,119.221H31.8l3.361,11.952h.095l3.361-11.952h9.792l-8.737,20.784v13.488H30.742V140.005Z" fill="#0a1013"/>
      <path d="M70.1,119.221v7.3H58.725v5.856H69.381v7.008H58.725v14.112H49.8V119.221Z" fill="#0a1013"/>
      <path d="M93.476,119.221l3.5,23.712h.1l2.4-23.712h8.641l-5.857,34.272H92.468l-2.975-23.04h-.1l-2.976,23.04H76.628l-5.856-34.272h8.641L82.1,142.933H82.2l3.217-23.712Z" fill="#0a1013"/>
    </g>
    <g>
      <path d="M10.582,170.264a2.144,2.144,0,0,0,.24.013.858.858,0,0,0,.342-.061.8.8,0,0,0,.222-.137.5.5,0,0,0,.12-.162.364.364,0,0,0,.036-.132.844.844,0,0,0-.03-.193q-.03-.119-.066-.252l-1.7-6.12h2.22l.66,4.381h.024l.624-4.381h2.16l-1.74,6.673a4.581,4.581,0,0,1-.33.93,1.833,1.833,0,0,1-.444.582,1.479,1.479,0,0,1-.594.3,3.23,3.23,0,0,1-.768.084q-.348,0-.642-.012c-.2-.008-.386-.021-.57-.036v-1.512C10.422,170.245,10.5,170.256,10.582,170.264Z" fill="#0a1013"/>
      <path d="M16.042,163.22v-1.907H18.2v1.907h.852v1.452H18.2v3.1a.507.507,0,0,0,.126.39.568.568,0,0,0,.39.114h.336v1.439q-.3,0-.6.019t-.576.018a7.153,7.153,0,0,1-.84-.042,1.166,1.166,0,0,1-.57-.21.959.959,0,0,1-.324-.5,3.031,3.031,0,0,1-.1-.871v-3.456h-.72V163.22Z" fill="#0a1013"/>
      <path d="M23.158,165.333v1.824H19.414v-1.824Z" fill="#0a1013"/>
      <path d="M29.266,161.145v8.567H27.178v-.887h-.024a1.389,1.389,0,0,1-1.476,1.019,1.55,1.55,0,0,1-1.512-.851,6.191,6.191,0,0,1-.432-2.664,7.016,7.016,0,0,1,.144-1.548,3.027,3.027,0,0,1,.4-1.008,1.514,1.514,0,0,1,.63-.553,1.975,1.975,0,0,1,.816-.168,1.711,1.711,0,0,1,.822.2,1.175,1.175,0,0,1,.534.7h.024v-2.808Zm-3.348,6.191a2.5,2.5,0,0,0,.09.559.547.547,0,0,0,.186.294.533.533,0,0,0,.312.084.511.511,0,0,0,.3-.084.547.547,0,0,0,.186-.294,2.5,2.5,0,0,0,.09-.559q.024-.347.024-.864t-.024-.876a2.483,2.483,0,0,0-.09-.557.54.54,0,0,0-.186-.294.511.511,0,0,0-.3-.084.533.533,0,0,0-.312.084.54.54,0,0,0-.186.294,2.483,2.483,0,0,0-.09.557q-.024.35-.024.876T25.918,167.336Z" fill="#0a1013"/>
      <path d="M32.362,161.145v8.567H30.2v-8.567Z" fill="#0a1013"/>
      <path d="M35.386,163.22v.889h.024a1.442,1.442,0,0,1,1.476-1.057,1.545,1.545,0,0,1,1.511.876,6.329,6.329,0,0,1,.433,2.677,7.022,7.022,0,0,1-.145,1.56,2.976,2.976,0,0,1-.4,1,1.422,1.422,0,0,1-.624.528,2.174,2.174,0,0,1-.823.149,1.836,1.836,0,0,1-.821-.179,1.1,1.1,0,0,1-.535-.684h-.024v2.808H33.3V163.22Zm.095,4.116a2.44,2.44,0,0,0,.091.559.542.542,0,0,0,.186.294.506.506,0,0,0,.3.084.537.537,0,0,0,.312-.084.547.547,0,0,0,.186-.294,2.511,2.511,0,0,0,.089-.559c.017-.231.024-.523.024-.876s-.007-.641-.024-.87a2.469,2.469,0,0,0-.089-.551.462.462,0,0,0-.5-.378.506.506,0,0,0-.3.084.534.534,0,0,0-.186.294,2.4,2.4,0,0,0-.091.551q-.024.343-.024.87T35.481,167.336Z" fill="#0a1013"/>
      <path d="M42.189,164.672V163.22h.745v-.468a2.857,2.857,0,0,1,.1-.828,1.173,1.173,0,0,1,.335-.546,1.435,1.435,0,0,1,.618-.3,3.932,3.932,0,0,1,.948-.1q.24,0,.51.018c.18.011.354.03.522.053v1.357a.755.755,0,0,0-.161-.03c-.053,0-.119-.006-.2-.006a.617.617,0,0,0-.36.108.392.392,0,0,0-.156.348v.4h.876v1.452h-.876v5.04H42.934v-5.04Z" fill="#0a1013"/>
      <path d="M45.969,164.672V163.22h.744v-.468a2.892,2.892,0,0,1,.1-.828,1.183,1.183,0,0,1,.336-.546,1.435,1.435,0,0,1,.618-.3,3.926,3.926,0,0,1,.948-.1q.24,0,.51.018c.18.011.354.03.522.053v1.357a.752.752,0,0,0-.162-.03q-.078-.006-.2-.006a.617.617,0,0,0-.36.108.392.392,0,0,0-.156.348v.4h.876v1.452h-.876v5.04h-2.16v-5.04Z" fill="#0a1013"/>
      <path d="M53.217,164.84a.554.554,0,0,0-.816,0,1.1,1.1,0,0,0-.119.588v4.284H50.121V163.22h2.088v.792h.024a1.565,1.565,0,0,1,1.573-.96,1.8,1.8,0,0,1,1.025.246,1.629,1.629,0,0,1,.559.75,1.537,1.537,0,0,1,.69-.773,2.036,2.036,0,0,1,.941-.223,2.734,2.734,0,0,1,.666.078,1.268,1.268,0,0,1,.535.283,1.394,1.394,0,0,1,.359.54,2.385,2.385,0,0,1,.132.864v4.895H56.554v-4.284a1.107,1.107,0,0,0-.12-.588.456.456,0,0,0-.409-.179.45.45,0,0,0-.407.179,1.1,1.1,0,0,0-.121.588v4.284h-2.16v-4.284A1.1,1.1,0,0,0,53.217,164.84Z" fill="#0a1013"/>
      <path d="M61.642,163.22v.889h.023a1.444,1.444,0,0,1,1.477-1.057,1.545,1.545,0,0,1,1.511.876,6.332,6.332,0,0,1,.432,2.677,7.029,7.029,0,0,1-.144,1.56,2.956,2.956,0,0,1-.4,1,1.411,1.411,0,0,1-.624.528,2.169,2.169,0,0,1-.822.149,1.84,1.84,0,0,1-.822-.179,1.1,1.1,0,0,1-.534-.684h-.024v2.808h-2.16V163.22Zm.095,4.116a2.44,2.44,0,0,0,.091.559.542.542,0,0,0,.186.294.505.505,0,0,0,.3.084.533.533,0,0,0,.312-.084.547.547,0,0,0,.186-.294,2.5,2.5,0,0,0,.09-.559q.024-.347.024-.876t-.024-.87a2.462,2.462,0,0,0-.09-.551.54.54,0,0,0-.186-.294.533.533,0,0,0-.312-.084.505.505,0,0,0-.3.084.534.534,0,0,0-.186.294,2.4,2.4,0,0,0-.091.551q-.024.343-.024.87T61.737,167.336Z" fill="#0a1013"/>
      <path d="M67.725,167.685a.99.99,0,0,0,.18.7.573.573,0,0,0,.408.175.517.517,0,0,0,.45-.234,1.707,1.707,0,0,0,.162-.894h1.944a2.577,2.577,0,0,1-.612,1.806,2.607,2.607,0,0,1-1.932.6,4.2,4.2,0,0,1-1.308-.174,1.768,1.768,0,0,1-.852-.576,2.455,2.455,0,0,1-.462-1.05,7.665,7.665,0,0,1-.138-1.572,6.889,6.889,0,0,1,.156-1.584,2.591,2.591,0,0,1,.492-1.055,1.924,1.924,0,0,1,.858-.594,4.238,4.238,0,0,1,2.388-.03,1.83,1.83,0,0,1,.816.522,2.313,2.313,0,0,1,.492.96,5.726,5.726,0,0,1,.162,1.481v.661h-3.2Zm1.062-3.072a.486.486,0,0,0-.474-.24.474.474,0,0,0-.462.24,1.707,1.707,0,0,0-.126.756v.288h1.188v-.288A1.707,1.707,0,0,0,68.787,164.613Z" fill="#0a1013"/>
      <path d="M76.869,163.22v6.385a2.515,2.515,0,0,1-.21,1.08,1.811,1.811,0,0,1-.576.708,2.359,2.359,0,0,1-.858.378,4.787,4.787,0,0,1-1.068.113,5.768,5.768,0,0,1-.972-.077,2.321,2.321,0,0,1-.8-.282,1.48,1.48,0,0,1-.54-.559,1.926,1.926,0,0,1-.21-.905h1.944a.482.482,0,0,0,.144.372.564.564,0,0,0,.4.132,1.3,1.3,0,0,0,.24-.024.424.424,0,0,0,.21-.108.65.65,0,0,0,.15-.24,1.248,1.248,0,0,0,.06-.433v-1.2h-.024a1.3,1.3,0,0,1-.612.768,1.9,1.9,0,0,1-.852.2,1.954,1.954,0,0,1-.66-.12,1.387,1.387,0,0,1-.612-.468,2.766,2.766,0,0,1-.45-.979,6.32,6.32,0,0,1-.174-1.637,7.492,7.492,0,0,1,.138-1.567,2.881,2.881,0,0,1,.4-1.008,1.48,1.48,0,0,1,.63-.54,2.1,2.1,0,0,1,.84-.162,1.615,1.615,0,0,1,.852.24,1.4,1.4,0,0,1,.576.829h.024v-.9Zm-3.27,3.906a1.948,1.948,0,0,0,.12.5.465.465,0,0,0,.192.24.572.572,0,0,0,.27.059.545.545,0,0,0,.258-.059.465.465,0,0,0,.192-.24,1.818,1.818,0,0,0,.114-.5,7.714,7.714,0,0,0,.036-.834,7.61,7.61,0,0,0-.036-.822,1.8,1.8,0,0,0-.114-.5.449.449,0,0,0-.45-.311.53.53,0,0,0-.27.066.5.5,0,0,0-.192.245,1.928,1.928,0,0,0-.12.5,6.532,6.532,0,0,0-.042.822A6.621,6.621,0,0,0,73.6,167.126Z" fill="#0a1013"/>
      <path d="M82.544,163.22l.54,4.668h.024l.637-4.668h2.3l.636,4.668h.024l.54-4.668h2.088l-1.319,6.492H85.568l-.659-4.595h-.024l-.66,4.595H81.776l-1.32-6.492Z" fill="#0a1013"/>
      <path d="M91.928,161.145v2.8h.025a1.5,1.5,0,0,1,.689-.7,1.971,1.971,0,0,1,.811-.187,2.449,2.449,0,0,1,.641.084,1.383,1.383,0,0,1,.54.288,1.422,1.422,0,0,1,.372.546,2.279,2.279,0,0,1,.138.847v4.895h-2.16v-4.284a1.1,1.1,0,0,0-.12-.588.554.554,0,0,0-.816,0,1.1,1.1,0,0,0-.12.588v4.284h-2.16v-8.567Z" fill="#0a1013"/>
      <path d="M98.205,161.145v1.607H96.044v-1.607Zm0,2.075v6.492H96.044V163.22Z" fill="#0a1013"/>
      <path d="M100.809,168.057a.671.671,0,0,0,.119.276.518.518,0,0,0,.456.228.7.7,0,0,0,.438-.144.487.487,0,0,0,.186-.409.5.5,0,0,0-.234-.443,2.507,2.507,0,0,0-.582-.276q-.348-.12-.75-.252a3.127,3.127,0,0,1-.75-.361,1.916,1.916,0,0,1-.582-.6,1.869,1.869,0,0,1-.234-.99,2.011,2.011,0,0,1,.156-.8,1.755,1.755,0,0,1,.474-.642,2.266,2.266,0,0,1,.8-.432,3.761,3.761,0,0,1,1.146-.157q2.436,0,2.436,2.04H102.02a.816.816,0,0,0-.149-.569.576.576,0,0,0-.427-.15.6.6,0,0,0-.4.131.461.461,0,0,0-.156.372.451.451,0,0,0,.234.415,2.875,2.875,0,0,0,.582.246q.348.108.75.227a2.966,2.966,0,0,1,.75.343,1.848,1.848,0,0,1,.582.6,1.884,1.884,0,0,1,.234,1,2.084,2.084,0,0,1-.18.875,1.987,1.987,0,0,1-.51.685,2.164,2.164,0,0,1-.816.432,3.9,3.9,0,0,1-1.1.143,2.857,2.857,0,0,1-1.95-.54,2.061,2.061,0,0,1-.594-1.607h1.9A1.651,1.651,0,0,0,100.809,168.057Z" fill="#0a1013"/>
      <path d="M106.785,163.22v.889h.024a1.442,1.442,0,0,1,1.476-1.057,1.545,1.545,0,0,1,1.511.876,6.332,6.332,0,0,1,.432,2.677,7.029,7.029,0,0,1-.144,1.56,2.976,2.976,0,0,1-.4,1,1.422,1.422,0,0,1-.624.528,2.178,2.178,0,0,1-.823.149,1.843,1.843,0,0,1-.822-.179,1.1,1.1,0,0,1-.534-.684h-.024v2.808H104.7V163.22Zm.095,4.116a2.44,2.44,0,0,0,.091.559.542.542,0,0,0,.186.294.505.505,0,0,0,.3.084.533.533,0,0,0,.312-.084.542.542,0,0,0,.187-.294,2.57,2.57,0,0,0,.089-.559q.024-.347.024-.876t-.024-.87a2.529,2.529,0,0,0-.089-.551.464.464,0,0,0-.5-.378.505.505,0,0,0-.3.084.534.534,0,0,0-.186.294,2.4,2.4,0,0,0-.091.551q-.024.343-.024.87T106.88,167.336Z" fill="#0a1013"/>
      <path d="M112.868,167.685a.99.99,0,0,0,.18.7.573.573,0,0,0,.408.175.517.517,0,0,0,.45-.234,1.707,1.707,0,0,0,.162-.894h1.944a2.577,2.577,0,0,1-.612,1.806,2.607,2.607,0,0,1-1.932.6,4.2,4.2,0,0,1-1.308-.174,1.768,1.768,0,0,1-.852-.576,2.455,2.455,0,0,1-.462-1.05,7.665,7.665,0,0,1-.138-1.572,6.889,6.889,0,0,1,.156-1.584,2.591,2.591,0,0,1,.492-1.055,1.924,1.924,0,0,1,.858-.594,4.238,4.238,0,0,1,2.388-.03,1.83,1.83,0,0,1,.816.522,2.313,2.313,0,0,1,.492.96,5.726,5.726,0,0,1,.162,1.481v.661h-3.2Zm1.062-3.072a.486.486,0,0,0-.474-.24.474.474,0,0,0-.462.24,1.707,1.707,0,0,0-.126.756v.288h1.188v-.288A1.707,1.707,0,0,0,113.93,164.613Z" fill="#0a1013"/>
      <path d="M118.7,163.22v1.032h.024a1.729,1.729,0,0,1,.576-.893,1.4,1.4,0,0,1,.876-.307h.348v2.017c-.1-.017-.188-.028-.276-.036s-.176-.012-.264-.012a1.407,1.407,0,0,0-.894.252,1.089,1.089,0,0,0-.318.9v3.54h-2.16V163.22Z" fill="#0a1013"/>
    </g>
    <path d="M94.478,72.337H82.363A1.389,1.389,0,0,0,81,73.479l-2.76,15.265a1.39,1.39,0,0,1-2.72.072l-1.074-4.559A34.58,34.58,0,0,1,75.754,64.1a1.384,1.384,0,0,1,1.838-.762l7.218,3.073a1.388,1.388,0,0,0,1.822-.733l1.658-3.892a1.389,1.389,0,0,0-.734-1.822L83,58.019a4.317,4.317,0,0,1-2.28-5.663l.058-.138a1.39,1.39,0,0,1,1.823-.734l7.91,3.369a1.388,1.388,0,0,0,1.822-.734l1.738-4.08a1.39,1.39,0,0,0-.808-1.852L79.419,43.21l-6.9-2.479a1,1,0,0,0-1.324.747L67.781,58.547a4.74,4.74,0,0,1-8.951,1.208L51.309,43.9a.386.386,0,0,0-.688-.019l-.1.188a21.373,21.373,0,0,0,3.182,25.1c1.782,1.829,3.058,3.741,3.142,5.51a34.577,34.577,0,0,1-.882,9.583l-1.075,4.559a1.389,1.389,0,0,1-2.719-.072L49.406,73.479a1.389,1.389,0,0,0-1.367-1.142h-10.8a1.389,1.389,0,0,0-1.34,1.755l8.65,31.738a1,1,0,0,0,1.021.739c.48-.027,1.057-.063,1.378-.1A19.156,19.156,0,0,0,63.53,91.312l1.594-7.743h.154l1.595,7.743a19.154,19.154,0,0,0,16.583,15.157c.331.038.9.075,1.379.1a1,1,0,0,0,1.018-.735l9-33.011A.386.386,0,0,0,94.478,72.337ZM48.9,88.576l-1.514,2.4a2.4,2.4,0,0,1-4.348-.648l-3.221-11.82a2.63,2.63,0,0,1,2.538-3.322h2.566a2.631,2.631,0,0,1,2.589,2.163l1.721,9.517A2.4,2.4,0,0,1,48.9,88.576ZM90.919,78.511,87.7,90.331a2.4,2.4,0,0,1-4.347.648l-1.514-2.4a2.4,2.4,0,0,1-.331-1.707l1.72-9.517a2.632,2.632,0,0,1,2.589-2.163h2.567A2.631,2.631,0,0,1,90.919,78.511Z" fill="#0a1013"/>
  </g>
</svg>
